<?xml version="1.0" encoding="UTF-8" standalone="no"?>
<svg
   xmlns:dc="http://purl.org/dc/elements/1.1/"
   xmlns:cc="http://creativecommons.org/ns#"
   xmlns:rdf="http://www.w3.org/1999/02/22-rdf-syntax-ns#"
   xmlns:svg="http://www.w3.org/2000/svg"
   xmlns="http://www.w3.org/2000/svg"
   xmlns:sodipodi="http://sodipodi.sourceforge.net/DTD/sodipodi-0.dtd"
   xmlns:inkscape="http://www.inkscape.org/namespaces/inkscape"
   id="Layer_1"
   xml:space="preserve"
   overflow="visible"
   viewBox="0 0 2880 320"
   version="1.1"
   enable-background="new 0 0 227.521 85.789"
   inkscape:version="0.48.4 r9939"
   width="100%"
   height="100%"
   sodipodi:docname="Clock_Digital_9_red.svg"
   style="overflow:visible"
   inkscape:export-filename="/home/mark/Pictures/Clock_Digital_9.png"
   inkscape:export-xdpi="90"
   inkscape:export-ydpi="90"><defs
     id="defs13" /><sodipodi:namedview
     pagecolor="#ffffff"
     bordercolor="#666666"
     borderopacity="1"
     objecttolerance="10"
     gridtolerance="10"
     guidetolerance="10"
     inkscape:pageopacity="0"
     inkscape:pageshadow="2"
     inkscape:window-width="1600"
     inkscape:window-height="1176"
     id="namedview11"
     showgrid="false"
     inkscape:zoom="1.4142136"
     inkscape:cx="820.18413"
     inkscape:cy="92.626042"
     inkscape:window-x="0"
     inkscape:window-y="24"
     inkscape:window-maximized="1"
     inkscape:current-layer="Layer_1"
     fit-margin-top="0"
     fit-margin-left="0"
     fit-margin-right="0"
     fit-margin-bottom="0"
     showguides="true"
     inkscape:guide-bbox="true" /><metadata
     id="metadata9"><rdf:RDF><cc:Work><dc:format>image/svg+xml</dc:format><dc:type
           rdf:resource="http://purl.org/dc/dcmitype/StillImage" /><cc:license
           rdf:resource="http://creativecommons.org/licenses/publicdomain/" /><dc:publisher><cc:Agent
             rdf:about="http://openclipart.org/"><dc:title>Openclipart</dc:title></cc:Agent></dc:publisher><dc:title></dc:title><dc:date>2008-09-25T16:49:52</dc:date><dc:description>A collection of digital clocks showing every half hour. Suitable for educational purposes.</dc:description><dc:source>http://openclipart.org/detail/19412/digital-clock-by-manio1-19412</dc:source><dc:creator><cc:Agent><dc:title>manio1</dc:title></cc:Agent></dc:creator><dc:subject><rdf:Bag><rdf:li>cartoon</rdf:li><rdf:li>clip art</rdf:li><rdf:li>clipart</rdf:li><rdf:li>clock</rdf:li><rdf:li>clocks</rdf:li><rdf:li>digital</rdf:li><rdf:li>digital clock</rdf:li><rdf:li>digital clocks</rdf:li><rdf:li>image</rdf:li><rdf:li>media</rdf:li><rdf:li>public domain</rdf:li><rdf:li>sign</rdf:li><rdf:li>svg</rdf:li><rdf:li>time</rdf:li></rdf:Bag></dc:subject></cc:Work><cc:License
         rdf:about="http://creativecommons.org/licenses/publicdomain/"><cc:permits
           rdf:resource="http://creativecommons.org/ns#Reproduction" /><cc:permits
           rdf:resource="http://creativecommons.org/ns#Distribution" /><cc:permits
           rdf:resource="http://creativecommons.org/ns#DerivativeWorks" /></cc:License></rdf:RDF></metadata><rect
     style="fill:#000000;fill-rule:evenodd;stroke:none"
     id="rect3115"
     width="2880"
     height="320"
     x="0"
     y="-7.6293945e-06" /><g
     id="g4208"
     transform="matrix(4.058181,0,0,4.058181,2362.773,-2037.1779)"><path
       transform="matrix(1,0,-0.23965472,1,-54.96393,500.5899)"
       d="m 107.99291,30.002602 c 0,2.361549 -2.00345,4.275962 -4.47484,4.275962 -2.47139,0 -4.474849,-1.914413 -4.474849,-4.275962 0,-2.361549 2.003459,-4.275963 4.474849,-4.275963 2.47139,0 4.47484,1.914414 4.47484,4.275963 z"
       sodipodi:ry="4.2759628"
       sodipodi:rx="4.4748449"
       sodipodi:cy="30.002602"
       sodipodi:cx="103.51807"
       id="path4096"
       style="fill:#ff0000;fill-opacity:1;stroke:#7b0000;stroke-width:0.5;stroke-linecap:round;stroke-linejoin:round;stroke-miterlimit:4;stroke-opacity:1;stroke-dasharray:none"
       sodipodi:type="arc" /><path
       d="m 107.99291,30.002602 c 0,2.361549 -2.00345,4.275962 -4.47484,4.275962 -2.47139,0 -4.474849,-1.914413 -4.474849,-4.275962 0,-2.361549 2.003459,-4.275963 4.474849,-4.275963 2.47139,0 4.47484,1.914414 4.47484,4.275963 z"
       sodipodi:ry="4.2759628"
       sodipodi:rx="4.4748449"
       sodipodi:cy="30.002602"
       sodipodi:cx="103.51807"
       id="path4096-2"
       style="fill:#ff0000;fill-opacity:1;stroke:#7b0000;stroke-width:0.5;stroke-linecap:round;stroke-linejoin:round;stroke-miterlimit:4;stroke-opacity:1;stroke-dasharray:none"
       sodipodi:type="arc"
       transform="matrix(1,0,-0.23965472,1,-60.135364,522.1686)" /></g><path
     style="fill:#1e0000;fill-opacity:0"
     d="m 103.13187,447.38973 c -0.72708,-0.92218 -1.34258,-1.7239 -1.36776,-1.78161 -0.0252,-0.0577 0.98362,-0.9175 2.24181,-1.91065 l 2.2876,-1.80572 12.84161,8.9e-4 12.8416,8.9e-4 1.32576,1.66373 c 0.72917,0.91505 1.34754,1.71697 1.37417,1.78205 0.0266,0.0651 -0.9732,0.9303 -2.22184,1.92272 l -2.27026,1.80439 -12.86536,0 -12.86536,0 -1.32197,-1.67669 z"
     id="path3017"
     inkscape:connector-curvature="0" /><g
     id="g4212"
     transform="matrix(4.058181,0,0,4.058181,2530.1954,-2038.564)"><path
       transform="matrix(1,0,-0.23965472,1,-37.079659,500.93147)"
       d="m 107.99291,30.002602 c 0,2.361549 -2.00345,4.275962 -4.47484,4.275962 -2.47139,0 -4.474849,-1.914413 -4.474849,-4.275962 0,-2.361549 2.003459,-4.275963 4.474849,-4.275963 2.47139,0 4.47484,1.914414 4.47484,4.275963 z"
       sodipodi:ry="4.2759628"
       sodipodi:rx="4.4748449"
       sodipodi:cy="30.002602"
       sodipodi:cx="103.51807"
       id="path4096-4"
       style="fill:#1e0000;fill-opacity:1;stroke:#14000;stroke-width:0.5;stroke-linecap:round;stroke-linejoin:round;stroke-miterlimit:4;stroke-opacity:1;stroke-dasharray:none;overflow:visible"
       sodipodi:type="arc" /><path
       d="m 107.99291,30.002602 c 0,2.361549 -2.00345,4.275962 -4.47484,4.275962 -2.47139,0 -4.474849,-1.914413 -4.474849,-4.275962 0,-2.361549 2.003459,-4.275963 4.474849,-4.275963 2.47139,0 4.47484,1.914414 4.47484,4.275963 z"
       sodipodi:ry="4.2759628"
       sodipodi:rx="4.4748449"
       sodipodi:cy="30.002602"
       sodipodi:cx="103.51807"
       id="path4096-2-4"
       style="fill:#1e0000;fill-opacity:1;stroke:#14000;stroke-width:0.5;stroke-linecap:round;stroke-linejoin:round;stroke-miterlimit:4;stroke-opacity:1;stroke-dasharray:none;overflow:visible"
       sodipodi:type="arc"
       transform="matrix(1,0,-0.23965472,1,-42.251093,522.51017)" /></g><g
     id="g4118"
     transform="matrix(4.0581811,0,0,4.0581811,143.18096,-1220.3979)"><path
       sodipodi:nodetypes="ccccccc"
       inkscape:connector-curvature="0"
       id="rect4119-18-9"
       d="m 38.351722,344.87237 -6.241174,26.04236 -4.836819,4 -2.919571,-4 6.241174,-26.04236 4.836809,-4 z"
       style="fill:#1e0000;fill-opacity:1;stroke:#14000;stroke-width:0.5;stroke-linecap:round;stroke-linejoin:round;stroke-miterlimit:4;stroke-opacity:1;overflow:visible" /><path
       sodipodi:nodetypes="ccccccc"
       inkscape:connector-curvature="0"
       id="rect4119-7-9-3"
       d="m 73.837072,344.87237 -6.241174,26.04236 -4.836819,4 -2.919571,-4 6.241174,-26.04236 4.836809,-4 z"
       style="fill:#ff0000;fill-opacity:1;stroke:#7b0000;stroke-width:0.5;stroke-linecap:round;stroke-linejoin:round;stroke-miterlimit:4;stroke-opacity:1;overflow:visible" /><path
       sodipodi:nodetypes="ccccccc"
       inkscape:connector-curvature="0"
       id="rect4119-6-2-0"
       d="m 46.844837,309.43341 -6.241174,26.04236 -4.836819,4 -2.919571,-4 6.241174,-26.04236 4.836809,-4 z"
       style="fill:#1e0000;fill-opacity:1;stroke:#14000;stroke-width:0.5;stroke-linecap:round;stroke-linejoin:round;stroke-miterlimit:4;stroke-opacity:1;overflow:visible" /><path
       sodipodi:nodetypes="ccccccc"
       inkscape:connector-curvature="0"
       id="rect4119-1-7-9"
       d="m 82.33019,309.43341 -6.241177,26.04236 -4.836819,4 -2.919571,-4 6.241174,-26.04236 4.836813,-4 z"
       style="fill:#ff0000;fill-opacity:1;stroke:#7b0000;stroke-width:0.5;stroke-linecap:round;stroke-linejoin:round;stroke-miterlimit:4;stroke-opacity:1;overflow:visible" /><path
       sodipodi:nodetypes="ccccccc"
       inkscape:connector-curvature="0"
       id="rect4119-6-4-9-4"
       d="m 73.885287,308.73173 -26.04237,0 -3.070571,-3.8782 4.929427,-3.87819 26.04237,0 3.070577,3.87819 z"
       style="fill:#1e0000;fill-opacity:1;stroke:#14000;stroke-width:0.5;stroke-linecap:round;stroke-linejoin:round;stroke-miterlimit:4;stroke-opacity:1;overflow:visible" /><path
       sodipodi:nodetypes="ccccccc"
       inkscape:connector-curvature="0"
       id="rect4119-6-4-2-54-8"
       d="m 65.418503,344.06083 -26.04237,0 -3.070571,-3.8782 4.929427,-3.87819 26.04237,0 3.070573,3.87819 z"
       style="fill:#1e0000;fill-opacity:1;stroke:#14000;stroke-width:0.5;stroke-linecap:round;stroke-linejoin:round;stroke-miterlimit:4;stroke-opacity:1;overflow:visible" /><path
       sodipodi:nodetypes="ccccccc"
       inkscape:connector-curvature="0"
       id="rect4119-6-4-3-3-6"
       d="m 56.966463,379.3284 -26.04237,0 -3.070571,-3.8782 4.929427,-3.87819 26.04237,0 3.070573,3.87819 z"
       style="fill:#1e0000;fill-opacity:1;stroke:#14000;stroke-width:0.5;stroke-linecap:round;stroke-linejoin:round;stroke-miterlimit:4;stroke-opacity:1;overflow:visible" /></g><g
     id="g4127"
     transform="matrix(4.058181,0,0,4.058181,111.00832,-1225.4615)"><path
       sodipodi:nodetypes="ccccccc"
       inkscape:connector-curvature="0"
       id="rect4119-18-3"
       d="m 105.41937,346.12014 -6.241177,26.04236 -4.836819,4 -2.919571,-4 6.241174,-26.04236 4.836813,-4 z"
       style="fill:#ff0000;fill-opacity:1;stroke:#7b0000;stroke-width:0.5;stroke-linecap:round;stroke-linejoin:round;stroke-miterlimit:4;stroke-opacity:1;overflow:visible" /><path
       sodipodi:nodetypes="ccccccc"
       inkscape:connector-curvature="0"
       id="rect4119-7-9-37"
       d="m 140.90471,346.12014 -6.24117,26.04236 -4.83682,4 -2.91957,-4 6.24117,-26.04236 4.83681,-4 z"
       style="fill:#1e0000;fill-opacity:1;stroke:#14000;stroke-width:0.5;stroke-linecap:round;stroke-linejoin:round;stroke-miterlimit:4;stroke-opacity:1;overflow:visible" /><path
       sodipodi:nodetypes="ccccccc"
       inkscape:connector-curvature="0"
       id="rect4119-6-2-5"
       d="m 113.91248,310.68118 -6.24117,26.04236 -4.83682,4 -2.919572,-4 6.241172,-26.04236 4.83681,-4 z"
       style="fill:#1e0000;fill-opacity:1;stroke:#14000;stroke-width:0.5;stroke-linecap:round;stroke-linejoin:round;stroke-miterlimit:4;stroke-opacity:1;overflow:visible" /><path
       sodipodi:nodetypes="ccccccc"
       inkscape:connector-curvature="0"
       id="rect4119-1-7-1"
       d="m 149.39783,310.68118 -6.24117,26.04236 -4.83682,4 -2.91957,-4 6.24117,-26.04236 4.83681,-4 z"
       style="fill:#ff0000;fill-opacity:1;stroke:#7b0000;stroke-width:0.5;stroke-linecap:round;stroke-linejoin:round;stroke-miterlimit:4;stroke-opacity:1;overflow:visible" /><path
       sodipodi:nodetypes="ccccccc"
       inkscape:connector-curvature="0"
       id="rect4119-6-4-9-7"
       d="m 140.95293,309.9795 -26.04237,0 -3.07057,-3.8782 4.92943,-3.87819 26.04237,0 3.07057,3.87819 z"
       style="fill:#ff0000;fill-opacity:1;stroke:#7b0000;stroke-width:0.5;stroke-linecap:round;stroke-linejoin:round;stroke-miterlimit:4;stroke-opacity:1;overflow:visible" /><path
       sodipodi:nodetypes="ccccccc"
       inkscape:connector-curvature="0"
       id="rect4119-6-4-2-54-9"
       d="m 132.48615,345.3086 -26.04237,0 -3.07057,-3.8782 4.92942,-3.87819 26.04237,0 3.07057,3.87819 z"
       style="fill:#ff0000;fill-opacity:1;stroke:#7b0000;stroke-width:0.5;stroke-linecap:round;stroke-linejoin:round;stroke-miterlimit:4;stroke-opacity:1;overflow:visible" /><path
       sodipodi:nodetypes="ccccccc"
       inkscape:connector-curvature="0"
       id="rect4119-6-4-3-3-3"
       d="m 124.03411,380.57617 -26.042372,0 -3.070571,-3.8782 4.929427,-3.87819 26.042366,0 3.07057,3.87819 z"
       style="fill:#ff0000;fill-opacity:1;stroke:#7b0000;stroke-width:0.5;stroke-linecap:round;stroke-linejoin:round;stroke-miterlimit:4;stroke-opacity:1;overflow:visible" /></g><g
     id="g4136"
     transform="matrix(4.058181,0,0,4.058181,72.506085,-1236.8548)"><path
       sodipodi:nodetypes="ccccccc"
       inkscape:connector-curvature="0"
       id="rect4119-18-4"
       d="m 174.04673,348.92762 -6.24118,26.04236 -4.83682,4 -2.91957,-4 6.24118,-26.04236 4.8368,-4 z"
       style="fill:#1e0000;fill-opacity:1;stroke:#14000;stroke-width:0.5;stroke-linecap:round;stroke-linejoin:round;stroke-miterlimit:4;stroke-opacity:1;overflow:visible" /><path
       sodipodi:nodetypes="ccccccc"
       inkscape:connector-curvature="0"
       id="rect4119-7-9-35"
       d="m 209.53208,348.92762 -6.24118,26.04236 -4.83682,4 -2.91957,-4 6.24118,-26.04236 4.8368,-4 z"
       style="fill:#ff0000;fill-opacity:1;stroke:#7b0000;stroke-width:0.5;stroke-linecap:round;stroke-linejoin:round;stroke-miterlimit:4;stroke-opacity:1;overflow:visible" /><path
       sodipodi:nodetypes="ccccccc"
       inkscape:connector-curvature="0"
       id="rect4119-6-2-59"
       d="m 182.53984,313.48866 -6.24117,26.04236 -4.83682,4 -2.91957,-4 6.24117,-26.04236 4.83681,-4 z"
       style="fill:#1e0000;fill-opacity:1;stroke:#14000;stroke-width:0.5;stroke-linecap:round;stroke-linejoin:round;stroke-miterlimit:4;stroke-opacity:1;overflow:visible" /><path
       sodipodi:nodetypes="ccccccc"
       inkscape:connector-curvature="0"
       id="rect4119-1-7-8"
       d="m 218.02519,313.48866 -6.24117,26.04236 -4.83682,4 -2.91957,-4 6.24117,-26.04236 4.83681,-4 z"
       style="fill:#ff0000;fill-opacity:1;stroke:#7b0000;stroke-width:0.5;stroke-linecap:round;stroke-linejoin:round;stroke-miterlimit:4;stroke-opacity:1;overflow:visible" /><path
       sodipodi:nodetypes="ccccccc"
       inkscape:connector-curvature="0"
       id="rect4119-6-4-9-0"
       d="m 209.58029,312.78698 -26.04237,0 -3.07057,-3.8782 4.92943,-3.87819 26.04237,0 3.07057,3.87819 z"
       style="fill:#ff0000;fill-opacity:1;stroke:#7b0000;stroke-width:0.5;stroke-linecap:round;stroke-linejoin:round;stroke-miterlimit:4;stroke-opacity:1;overflow:visible" /><path
       sodipodi:nodetypes="ccccccc"
       inkscape:connector-curvature="0"
       id="rect4119-6-4-2-54-5"
       d="m 201.11351,348.11608 -26.04237,0 -3.07057,-3.8782 4.92942,-3.87819 26.04237,0 3.07058,3.87819 z"
       style="fill:#ff0000;fill-opacity:1;stroke:#7b0000;stroke-width:0.5;stroke-linecap:round;stroke-linejoin:round;stroke-miterlimit:4;stroke-opacity:1;overflow:visible" /><path
       sodipodi:nodetypes="ccccccc"
       inkscape:connector-curvature="0"
       id="rect4119-6-4-3-3-0"
       d="m 192.66147,383.38365 -26.04237,0 -3.07057,-3.8782 4.92942,-3.87819 26.04237,0 3.07058,3.87819 z"
       style="fill:#ff0000;fill-opacity:1;stroke:#7b0000;stroke-width:0.5;stroke-linecap:round;stroke-linejoin:round;stroke-miterlimit:4;stroke-opacity:1;overflow:visible" /></g><g
     id="g4145"
     transform="matrix(4.058181,0,0,4.058181,-938.65533,-1244.4503)"><path
       sodipodi:nodetypes="ccccccc"
       inkscape:connector-curvature="0"
       id="rect4119-18-33"
       d="m 245.79351,350.79928 -6.24118,26.04236 -4.83682,4 -2.91957,-4 6.24118,-26.04236 4.8368,-4 z"
       style="fill:#ff0000;fill-opacity:1;stroke:#7b0000;stroke-width:0.5;stroke-linecap:round;stroke-linejoin:round;stroke-miterlimit:4;stroke-opacity:1;overflow:visible" /><path
       sodipodi:nodetypes="ccccccc"
       inkscape:connector-curvature="0"
       id="rect4119-7-9-6"
       d="m 281.27886,350.79928 -6.24118,26.04236 -4.83682,4 -2.91957,-4 6.24118,-26.04236 4.8368,-4 z"
       style="fill:#ff0000;fill-opacity:1;stroke:#7b0000;stroke-width:0.5;stroke-linecap:round;stroke-linejoin:round;stroke-miterlimit:4;stroke-opacity:1;overflow:visible" /><path
       sodipodi:nodetypes="ccccccc"
       inkscape:connector-curvature="0"
       id="rect4119-6-2-7"
       d="m 254.28662,315.36032 -6.24117,26.04236 -4.83682,4 -2.91957,-4 6.24117,-26.04236 4.83681,-4 z"
       style="fill:#ff0000;fill-opacity:1;stroke:#7b0000;stroke-width:0.5;stroke-linecap:round;stroke-linejoin:round;stroke-miterlimit:4;stroke-opacity:1;overflow:visible" /><path
       sodipodi:nodetypes="ccccccc"
       inkscape:connector-curvature="0"
       id="rect4119-1-7-88"
       d="m 289.77197,315.36032 -6.24117,26.04236 -4.83682,4 -2.91957,-4 6.24117,-26.04236 4.83681,-4 z"
       style="fill:#ff0000;fill-opacity:1;stroke:#7b0000;stroke-width:0.5;stroke-linecap:round;stroke-linejoin:round;stroke-miterlimit:4;stroke-opacity:1;overflow:visible" /><path
       sodipodi:nodetypes="ccccccc"
       inkscape:connector-curvature="0"
       id="rect4119-6-4-9-6"
       d="m 281.32707,314.65864 -26.04237,0 -3.07057,-3.8782 4.92943,-3.87819 26.04237,0 3.07057,3.87819 z"
       style="fill:#ff0000;fill-opacity:1;stroke:#7b0000;stroke-width:0.5;stroke-linecap:round;stroke-linejoin:round;stroke-miterlimit:4;stroke-opacity:1;overflow:visible" /><path
       sodipodi:nodetypes="ccccccc"
       inkscape:connector-curvature="0"
       id="rect4119-6-4-2-54-91"
       d="m 272.86029,349.98774 -26.04237,0 -3.07057,-3.8782 4.92942,-3.87819 26.04237,0 3.07058,3.87819 z"
       style="fill:#1e0000;fill-opacity:1;stroke:#14000;stroke-width:0.5;stroke-linecap:round;stroke-linejoin:round;stroke-miterlimit:4;stroke-opacity:1;overflow:visible" /><path
       sodipodi:nodetypes="ccccccc"
       inkscape:connector-curvature="0"
       id="rect4119-6-4-3-3-8"
       d="m 264.40825,385.25531 -26.04237,0 -3.07057,-3.8782 4.92942,-3.87819 26.04237,0 3.07058,3.87819 z"
       style="fill:#ff0000;fill-opacity:1;stroke:#7b0000;stroke-width:0.5;stroke-linecap:round;stroke-linejoin:round;stroke-miterlimit:4;stroke-opacity:1;overflow:visible" /></g><g
     id="g4154"
     transform="matrix(4.058181,0,0,4.058181,894.82894,-1593.844)"><path
       sodipodi:nodetypes="ccccccc"
       inkscape:connector-curvature="0"
       id="rect4119-18-1"
       d="m 30.55316,436.89542 -6.241174,26.04236 -4.836819,4 -2.919571,-4 6.241174,-26.04236 4.836809,-4 z"
       style="fill:#1e0000;fill-opacity:1;stroke:#14000;stroke-width:0.5;stroke-linecap:round;stroke-linejoin:round;stroke-miterlimit:4;stroke-opacity:1;overflow:visible" /><path
       sodipodi:nodetypes="ccccccc"
       inkscape:connector-curvature="0"
       id="rect4119-7-9-7"
       d="m 66.03851,436.89542 -6.241174,26.04236 -4.836819,4 -2.919571,-4 6.241174,-26.04236 4.836809,-4 z"
       style="fill:#ff0000;fill-opacity:1;stroke:#7b0000;stroke-width:0.5;stroke-linecap:round;stroke-linejoin:round;stroke-miterlimit:4;stroke-opacity:1;overflow:visible" /><path
       sodipodi:nodetypes="ccccccc"
       inkscape:connector-curvature="0"
       id="rect4119-6-2-6"
       d="m 39.046275,401.45646 -6.241174,26.04236 -4.836819,4 -2.919571,-4 6.241174,-26.04236 4.836809,-4 z"
       style="fill:#ff0000;fill-opacity:1;stroke:#7b0000;stroke-width:0.5;stroke-linecap:round;stroke-linejoin:round;stroke-miterlimit:4;stroke-opacity:1;overflow:visible" /><path
       sodipodi:nodetypes="ccccccc"
       inkscape:connector-curvature="0"
       id="rect4119-1-7-91"
       d="m 74.531625,401.45646 -6.241174,26.04236 -4.836819,4 -2.919571,-4 6.241174,-26.04236 4.836809,-4 z"
       style="fill:#ff0000;fill-opacity:1;stroke:#7b0000;stroke-width:0.5;stroke-linecap:round;stroke-linejoin:round;stroke-miterlimit:4;stroke-opacity:1;overflow:visible" /><path
       sodipodi:nodetypes="ccccccc"
       inkscape:connector-curvature="0"
       id="rect4119-6-4-9-9"
       d="m 66.086725,400.75478 -26.04237,0 -3.070571,-3.8782 4.929427,-3.87819 26.04237,0 3.070573,3.87819 z"
       style="fill:#1e0000;fill-opacity:1;stroke:#14000;stroke-width:0.5;stroke-linecap:round;stroke-linejoin:round;stroke-miterlimit:4;stroke-opacity:1;overflow:visible" /><path
       sodipodi:nodetypes="ccccccc"
       inkscape:connector-curvature="0"
       id="rect4119-6-4-2-54-6"
       d="m 57.619941,436.08388 -26.04237,0 -3.070571,-3.8782 4.929427,-3.87819 26.04237,0 3.070573,3.87819 z"
       style="fill:#ff0000;fill-opacity:1;stroke:#7b0000;stroke-width:0.5;stroke-linecap:round;stroke-linejoin:round;stroke-miterlimit:4;stroke-opacity:1;overflow:visible" /><path
       sodipodi:nodetypes="ccccccc"
       inkscape:connector-curvature="0"
       id="rect4119-6-4-3-3-83"
       d="m 49.167901,471.35145 -26.04237,0 -3.070571,-3.8782 4.929427,-3.87819 26.04237,0 3.070573,3.87819 z"
       style="fill:#1e0000;fill-opacity:1;stroke:#14000;stroke-width:0.5;stroke-linecap:round;stroke-linejoin:round;stroke-miterlimit:4;stroke-opacity:1;overflow:visible" /></g><g
     id="g4163"
     transform="matrix(4.058181,0,0,4.058181,842.4016,-1598.9077)"><path
       sodipodi:nodetypes="ccccccc"
       inkscape:connector-curvature="0"
       id="rect4119-18-49"
       d="m 102.61188,438.14319 -6.24117,26.04236 -4.836819,4 -2.919571,-4 6.241174,-26.04236 4.836809,-4 z"
       style="fill:#1e0000;fill-opacity:1;stroke:#14000;stroke-width:0.5;stroke-linecap:round;stroke-linejoin:round;stroke-miterlimit:4;stroke-opacity:1;overflow:visible" /><path
       sodipodi:nodetypes="ccccccc"
       inkscape:connector-curvature="0"
       id="rect4119-7-9-8"
       d="m 138.09723,438.14319 -6.24117,26.04236 -4.83682,4 -2.91957,-4 6.24117,-26.04236 4.83681,-4 z"
       style="fill:#ff0000;fill-opacity:1;stroke:#7b0000;stroke-width:0.5;stroke-linecap:round;stroke-linejoin:round;stroke-miterlimit:4;stroke-opacity:1;overflow:visible" /><path
       sodipodi:nodetypes="ccccccc"
       inkscape:connector-curvature="0"
       id="rect4119-6-2-03"
       d="m 111.105,402.70423 -6.24117,26.04236 -4.83682,4 -2.919575,-4 6.241175,-26.04236 4.83681,-4 z"
       style="fill:#ff0000;fill-opacity:1;stroke:#7b0000;stroke-width:0.5;stroke-linecap:round;stroke-linejoin:round;stroke-miterlimit:4;stroke-opacity:1;overflow:visible" /><path
       sodipodi:nodetypes="ccccccc"
       inkscape:connector-curvature="0"
       id="rect4119-1-7-4"
       d="m 146.59035,402.70423 -6.24118,26.04236 -4.83682,4 -2.91957,-4 6.24118,-26.04236 4.83681,-4 z"
       style="fill:#1e0000;fill-opacity:1;stroke:#14000;stroke-width:0.5;stroke-linecap:round;stroke-linejoin:round;stroke-miterlimit:4;stroke-opacity:1;overflow:visible" /><path
       sodipodi:nodetypes="ccccccc"
       inkscape:connector-curvature="0"
       id="rect4119-6-4-9-5"
       d="m 138.14545,402.00255 -26.04237,0 -3.07057,-3.8782 4.92943,-3.87819 26.04236,0 3.07058,3.87819 z"
       style="fill:#ff0000;fill-opacity:1;stroke:#7b0000;stroke-width:0.5;stroke-linecap:round;stroke-linejoin:round;stroke-miterlimit:4;stroke-opacity:1;overflow:visible" /><path
       sodipodi:nodetypes="ccccccc"
       inkscape:connector-curvature="0"
       id="rect4119-6-4-2-54-4"
       d="m 129.67867,437.33165 -26.04237,0 -3.07058,-3.8782 4.92943,-3.87819 26.04237,0 3.07057,3.87819 z"
       style="fill:#ff0000;fill-opacity:1;stroke:#7b0000;stroke-width:0.5;stroke-linecap:round;stroke-linejoin:round;stroke-miterlimit:4;stroke-opacity:1;overflow:visible" /><path
       sodipodi:nodetypes="ccccccc"
       inkscape:connector-curvature="0"
       id="rect4119-6-4-3-3-2"
       d="m 121.22663,472.59922 -26.042375,0 -3.070571,-3.8782 4.929427,-3.87819 26.042369,0 3.07057,3.87819 z"
       style="fill:#ff0000;fill-opacity:1;stroke:#7b0000;stroke-width:0.5;stroke-linecap:round;stroke-linejoin:round;stroke-miterlimit:4;stroke-opacity:1;overflow:visible" /></g><g
     id="g4172"
     transform="matrix(4.058181,0,0,4.058181,802.63344,-1603.9714)"><path
       sodipodi:nodetypes="ccccccc"
       inkscape:connector-curvature="0"
       id="rect4119-18-7"
       d="m 171.55119,439.39096 -6.24118,26.04236 -4.83682,4 -2.91957,-4 6.24118,-26.04236 4.83681,-4 z"
       style="fill:#ff0000;fill-opacity:1;stroke:#7b0000;stroke-width:0.5;stroke-linecap:round;stroke-linejoin:round;stroke-miterlimit:4;stroke-opacity:1;overflow:visible" /><path
       sodipodi:nodetypes="ccccccc"
       inkscape:connector-curvature="0"
       id="rect4119-7-9-9"
       d="m 207.03654,439.39096 -6.24118,26.04236 -4.83682,4 -2.91957,-4 6.24118,-26.04236 4.83681,-4 z"
       style="fill:#ff0000;fill-opacity:1;stroke:#7b0000;stroke-width:0.5;stroke-linecap:round;stroke-linejoin:round;stroke-miterlimit:4;stroke-opacity:1;overflow:visible" /><path
       sodipodi:nodetypes="ccccccc"
       inkscape:connector-curvature="0"
       id="rect4119-6-2-4"
       d="m 180.0443,403.952 -6.24117,26.04236 -4.83682,4 -2.91957,-4 6.24117,-26.04236 4.83681,-4 z"
       style="fill:#ff0000;fill-opacity:1;stroke:#7b0000;stroke-width:0.5;stroke-linecap:round;stroke-linejoin:round;stroke-miterlimit:4;stroke-opacity:1;overflow:visible" /><path
       sodipodi:nodetypes="ccccccc"
       inkscape:connector-curvature="0"
       id="rect4119-1-7-14"
       d="m 215.52965,403.952 -6.24117,26.04236 -4.83682,4 -2.91957,-4 6.24117,-26.04236 4.83681,-4 z"
       style="fill:#1e0000;fill-opacity:1;stroke:#14000;stroke-width:0.5;stroke-linecap:round;stroke-linejoin:round;stroke-miterlimit:4;stroke-opacity:1;overflow:visible" /><path
       sodipodi:nodetypes="ccccccc"
       inkscape:connector-curvature="0"
       id="rect4119-6-4-9-3"
       d="m 207.08475,403.25032 -26.04237,0 -3.07057,-3.8782 4.92943,-3.87819 26.04237,0 3.07057,3.87819 z"
       style="fill:#ff0000;fill-opacity:1;stroke:#7b0000;stroke-width:0.5;stroke-linecap:round;stroke-linejoin:round;stroke-miterlimit:4;stroke-opacity:1;overflow:visible" /><path
       sodipodi:nodetypes="ccccccc"
       inkscape:connector-curvature="0"
       id="rect4119-6-4-2-54-0"
       d="m 198.61797,438.57942 -26.04237,0 -3.07057,-3.8782 4.92942,-3.87819 26.04237,0 3.07058,3.87819 z"
       style="fill:#ff0000;fill-opacity:1;stroke:#7b0000;stroke-width:0.5;stroke-linecap:round;stroke-linejoin:round;stroke-miterlimit:4;stroke-opacity:1;overflow:visible" /><path
       sodipodi:nodetypes="ccccccc"
       inkscape:connector-curvature="0"
       id="rect4119-6-4-3-3-5"
       d="m 190.16593,473.84699 -26.04237,0 -3.07057,-3.8782 4.92942,-3.87819 26.04237,0 3.07058,3.87819 z"
       style="fill:#ff0000;fill-opacity:1;stroke:#7b0000;stroke-width:0.5;stroke-linecap:round;stroke-linejoin:round;stroke-miterlimit:4;stroke-opacity:1;overflow:visible" /></g><g
     id="g4181"
     transform="matrix(4.058181,0,0,4.058181,748.94016,-1611.5669)"><path
       sodipodi:nodetypes="ccccccc"
       inkscape:connector-curvature="0"
       id="rect4119-18-16"
       d="m 243.92185,441.26261 -6.24117,26.04236 -4.83682,4 -2.91957,-4 6.24117,-26.04236 4.83681,-4 z"
       style="fill:#1e0000;fill-opacity:1;stroke:#14000;stroke-width:0.5;stroke-linecap:round;stroke-linejoin:round;stroke-miterlimit:4;stroke-opacity:1;overflow:visible" /><path
       sodipodi:nodetypes="ccccccc"
       inkscape:connector-curvature="0"
       id="rect4119-7-9-4"
       d="m 279.4072,441.26261 -6.24117,26.04236 -4.83682,4 -2.91957,-4 6.24117,-26.04236 4.83681,-4 z"
       style="fill:#ff0000;fill-opacity:1;stroke:#7b0000;stroke-width:0.5;stroke-linecap:round;stroke-linejoin:round;stroke-miterlimit:4;stroke-opacity:1;overflow:visible" /><path
       sodipodi:nodetypes="ccccccc"
       inkscape:connector-curvature="0"
       id="rect4119-6-2-45"
       d="m 252.41497,405.82365 -6.24117,26.04236 -4.83682,4 -2.91957,-4 6.24117,-26.04236 4.83681,-4 z"
       style="fill:#1e0000;fill-opacity:1;stroke:#14000;stroke-width:0.5;stroke-linecap:round;stroke-linejoin:round;stroke-miterlimit:4;stroke-opacity:1;overflow:visible" /><path
       sodipodi:nodetypes="ccccccc"
       inkscape:connector-curvature="0"
       id="rect4119-1-7-7"
       d="m 287.90032,405.82365 -6.24117,26.04236 -4.83682,4 -2.91957,-4 6.24117,-26.04236 4.83681,-4 z"
       style="fill:#ff0000;fill-opacity:1;stroke:#7b0000;stroke-width:0.5;stroke-linecap:round;stroke-linejoin:round;stroke-miterlimit:4;stroke-opacity:1;overflow:visible" /><path
       sodipodi:nodetypes="ccccccc"
       inkscape:connector-curvature="0"
       id="rect4119-6-4-9-33"
       d="m 279.45542,405.12197 -26.04237,0 -3.07057,-3.8782 4.92943,-3.87819 26.04237,0 3.07057,3.87819 z"
       style="fill:#ff0000;fill-opacity:1;stroke:#7b0000;stroke-width:0.5;stroke-linecap:round;stroke-linejoin:round;stroke-miterlimit:4;stroke-opacity:1;overflow:visible" /><path
       sodipodi:nodetypes="ccccccc"
       inkscape:connector-curvature="0"
       id="rect4119-6-4-2-54-66"
       d="m 270.98864,440.45107 -26.04237,0 -3.07058,-3.8782 4.92943,-3.87819 26.04237,0 3.07057,3.87819 z"
       style="fill:#1e0000;fill-opacity:1;stroke:#14000;stroke-width:0.5;stroke-linecap:round;stroke-linejoin:round;stroke-miterlimit:4;stroke-opacity:1;overflow:visible" /><path
       sodipodi:nodetypes="ccccccc"
       inkscape:connector-curvature="0"
       id="rect4119-6-4-3-3-55"
       d="m 262.5366,475.71864 -26.04237,0 -3.07058,-3.8782 4.92943,-3.87819 26.04237,0 3.07057,3.87819 z"
       style="fill:#1e0000;fill-opacity:1;stroke:#14000;stroke-width:0.5;stroke-linecap:round;stroke-linejoin:round;stroke-miterlimit:4;stroke-opacity:1;overflow:visible" /></g><g
     id="g4190"
     transform="matrix(4.058181,0,0,4.058181,1175.0303,-2012.8633)"><path
       sodipodi:nodetypes="ccccccc"
       inkscape:connector-curvature="0"
       id="rect4119-18-40"
       d="m 198.0663,540.14839 -6.24117,26.04236 -4.83682,4 -2.91957,-4 6.24117,-26.04236 4.83681,-4 z"
       style="fill:#ff0000;fill-opacity:1;stroke:#7b0000;stroke-width:0.5;stroke-linecap:round;stroke-linejoin:round;stroke-miterlimit:4;stroke-opacity:1;overflow:visible" /><path
       sodipodi:nodetypes="ccccccc"
       inkscape:connector-curvature="0"
       id="rect4119-7-9-94"
       d="m 233.55165,540.14839 -6.24117,26.04236 -4.83682,4 -2.91957,-4 6.24117,-26.04236 4.83681,-4 z"
       style="fill:#ff0000;fill-opacity:1;stroke:#7b0000;stroke-width:0.5;stroke-linecap:round;stroke-linejoin:round;stroke-miterlimit:4;stroke-opacity:1;overflow:visible" /><path
       sodipodi:nodetypes="ccccccc"
       inkscape:connector-curvature="0"
       id="rect4119-6-2-8"
       d="m 206.55942,504.70943 -6.24118,26.04236 -4.83682,4 -2.91957,-4 6.24118,-26.04236 4.83681,-4 z"
       style="fill:#ff0000;fill-opacity:1;stroke:#7b0000;stroke-width:0.5;stroke-linecap:round;stroke-linejoin:round;stroke-miterlimit:4;stroke-opacity:1;overflow:visible" /><path
       sodipodi:nodetypes="ccccccc"
       inkscape:connector-curvature="0"
       id="rect4119-1-7-19"
       d="m 242.04477,504.70943 -6.24118,26.04236 -4.83682,4 -2.91957,-4 6.24118,-26.04236 4.83681,-4 z"
       style="fill:#ff0000;fill-opacity:1;stroke:#7b0000;stroke-width:0.5;stroke-linecap:round;stroke-linejoin:round;stroke-miterlimit:4;stroke-opacity:1;overflow:visible" /><path
       sodipodi:nodetypes="ccccccc"
       inkscape:connector-curvature="0"
       id="rect4119-6-4-9-2"
       d="m 233.59987,504.00775 -26.04237,0 -3.07057,-3.8782 4.92942,-3.87819 26.04237,0 3.07058,3.87819 z"
       style="fill:#ff0000;fill-opacity:1;stroke:#7b0000;stroke-width:0.5;stroke-linecap:round;stroke-linejoin:round;stroke-miterlimit:4;stroke-opacity:1;overflow:visible" /><path
       sodipodi:nodetypes="ccccccc"
       inkscape:connector-curvature="0"
       id="rect4119-6-4-2-54-63"
       d="m 225.13308,539.33685 -26.04237,0 -3.07057,-3.8782 4.92943,-3.87819 26.04237,0 3.07057,3.87819 z"
       style="fill:#ff0000;fill-opacity:1;stroke:#7b0000;stroke-width:0.5;stroke-linecap:round;stroke-linejoin:round;stroke-miterlimit:4;stroke-opacity:1;overflow:visible" /><path
       sodipodi:nodetypes="ccccccc"
       inkscape:connector-curvature="0"
       id="rect4119-6-4-3-3-64"
       d="m 216.68104,574.60442 -26.04237,0 -3.07057,-3.8782 4.92943,-3.87819 26.04237,0 3.07057,3.87819 z"
       style="fill:#ff0000;fill-opacity:1;stroke:#7b0000;stroke-width:0.5;stroke-linecap:round;stroke-linejoin:round;stroke-miterlimit:4;stroke-opacity:1;overflow:visible" /></g><g
     id="g4199"
     transform="matrix(4.058181,0,0,4.058181,1145.3895,-2016.6611)"><path
       sodipodi:nodetypes="ccccccc"
       inkscape:connector-curvature="0"
       id="rect4119-18-43"
       d="m 264.51006,541.08423 -6.24117,26.04236 -4.83682,4 -2.91957,-4 6.24117,-26.04236 4.83681,-4 z"
       style="fill:#1e0000;fill-opacity:1;stroke:#14000;stroke-width:0.5;stroke-linecap:round;stroke-linejoin:round;stroke-miterlimit:4;stroke-opacity:1;overflow:visible" /><path
       sodipodi:nodetypes="ccccccc"
       inkscape:connector-curvature="0"
       id="rect4119-7-9-78"
       d="m 299.99541,541.08423 -6.24117,26.04236 -4.83682,4 -2.91957,-4 6.24117,-26.04236 4.83681,-4 z"
       style="fill:#ff0000;fill-opacity:1;stroke:#7b0000;stroke-width:0.5;stroke-linecap:round;stroke-linejoin:round;stroke-miterlimit:4;stroke-opacity:1;overflow:visible" /><path
       sodipodi:nodetypes="ccccccc"
       inkscape:connector-curvature="0"
       id="rect4119-6-2-67"
       d="m 273.00318,505.64527 -6.24118,26.04236 -4.83682,4 -2.91957,-4 6.24118,-26.04236 4.8368,-4 z"
       style="fill:#ff0000;fill-opacity:1;stroke:#7b0000;stroke-width:0.5;stroke-linecap:round;stroke-linejoin:round;stroke-miterlimit:4;stroke-opacity:1;overflow:visible" /><path
       sodipodi:nodetypes="ccccccc"
       inkscape:connector-curvature="0"
       id="rect4119-1-7-5"
       d="m 308.48853,505.64527 -6.24118,26.04236 -4.83682,4 -2.91957,-4 6.24118,-26.04236 4.8368,-4 z"
       style="fill:#ff0000;fill-opacity:1;stroke:#7b0000;stroke-width:0.5;stroke-linecap:round;stroke-linejoin:round;stroke-miterlimit:4;stroke-opacity:1;overflow:visible" /><path
       sodipodi:nodetypes="ccccccc"
       inkscape:connector-curvature="0"
       id="rect4119-6-4-9-95"
       d="m 300.04363,504.94359 -26.04237,0 -3.07058,-3.8782 4.92943,-3.87819 26.04237,0 3.07057,3.87819 z"
       style="fill:#ff0000;fill-opacity:1;stroke:#7b0000;stroke-width:0.5;stroke-linecap:round;stroke-linejoin:round;stroke-miterlimit:4;stroke-opacity:1;overflow:visible" /><path
       sodipodi:nodetypes="ccccccc"
       inkscape:connector-curvature="0"
       id="rect4119-6-4-2-54-2"
       d="m 291.57684,540.27269 -26.04237,0 -3.07057,-3.8782 4.92943,-3.87819 26.04237,0 3.07057,3.87819 z"
       style="fill:#ff0000;fill-opacity:1;stroke:#7b0000;stroke-width:0.5;stroke-linecap:round;stroke-linejoin:round;stroke-miterlimit:4;stroke-opacity:1;overflow:visible" /><path
       sodipodi:nodetypes="ccccccc"
       inkscape:connector-curvature="0"
       id="rect4119-6-4-3-3-32"
       d="m 283.1248,575.54026 -26.04237,0 -3.07057,-3.8782 4.92943,-3.87819 26.04237,0 3.07057,3.87819 z"
       style="fill:#ff0000;fill-opacity:1;stroke:#7b0000;stroke-width:0.5;stroke-linecap:round;stroke-linejoin:round;stroke-miterlimit:4;stroke-opacity:1;overflow:visible" /></g></svg>